<svg xmlns="http://www.w3.org/2000/svg" xmlns:xlink="http://www.w3.org/1999/xlink" xml:space="preserve" version="1.1" style="shape-rendering:geometricPrecision;text-rendering:geometricPrecision;image-rendering:optimizeQuality;" viewBox="0 0 100 125" x="0px" y="0px" fill-rule="evenodd" clip-rule="evenodd"><defs><style type="text/css">
   
    .fil0 {fill:black;fill-rule:nonzero}
   
  </style></defs><g><path class="fil0" d="M56 11c-5,-6 -15,-2 -15,6 0,8 10,12 15,6 4,-3 4,-9 0,-12z"/><path class="fil0" d="M56 45c-5,-5 -15,-1 -15,6 0,8 10,12 15,7 4,-4 4,-9 0,-13z"/><path class="fil0" d="M56 77c-5,-6 -15,-2 -15,6 0,8 10,12 15,6 4,-3 4,-9 0,-12z"/></g><text x="0" y="115" fill="#000000" font-size="5px" font-weight="bold" font-family="'Helvetica Neue', Helvetica, Arial-Unicode, Arial, Sans-serif">Created by Zaki Ahlansyah</text><text x="0" y="120" fill="#000000" font-size="5px" font-weight="bold" font-family="'Helvetica Neue', Helvetica, Arial-Unicode, Arial, Sans-serif">from the Noun Project</text></svg>